<svg xmlns="http://www.w3.org/2000/svg" viewBox="0 0 400.09 192.24"><defs><style>.cls-1{fill:#b0afb5;}.cls-2{fill:#fff;}.cls-3{fill:#78c0ae;}</style></defs><title>citypark</title><g id="Layer_2" data-name="Layer 2"><g id="Capa_1" data-name="Capa 1"><path class="cls-1" d="M98.3,37.67a16.19,16.19,0,0,1,16.19,16.19v9.93H82.1V53.86A16.19,16.19,0,0,1,98.3,37.67"/><rect class="cls-1" x="70.88" y="63.79" width="54.84" height="127.32"/><rect class="cls-2" x="107.55" y="69.2" width="12.81" height="12.81"/><rect class="cls-2" x="92.06" y="69.2" width="12.81" height="12.81"/><rect class="cls-2" x="92.06" y="84.5" width="12.81" height="12.82"/><rect class="cls-2" x="76.58" y="84.5" width="12.81" height="12.82"/><rect class="cls-2" x="107.55" y="99.8" width="12.81" height="12.81"/><rect class="cls-2" x="92.06" y="99.8" width="12.81" height="12.81"/><rect class="cls-2" x="76.58" y="99.8" width="12.81" height="12.81"/><rect class="cls-2" x="76.58" y="115.11" width="12.81" height="12.81"/><rect class="cls-2" x="107.55" y="130.41" width="12.81" height="12.82"/><rect class="cls-2" x="92.06" y="130.41" width="12.81" height="12.82"/><rect class="cls-2" x="92.06" y="145.71" width="12.81" height="12.81"/><rect class="cls-2" x="76.58" y="145.71" width="12.81" height="12.81"/><rect class="cls-2" x="107.55" y="161.02" width="12.81" height="12.81"/><rect class="cls-2" x="76.58" y="161.02" width="12.81" height="12.81"/><polygon class="cls-1" points="186.48 81.54 226.94 81.54 226.94 53.92 206.98 37.67 186.48 53.92 186.48 81.54"/><rect class="cls-1" x="171.03" y="81.54" width="71.34" height="109.57"/><rect class="cls-2" x="222.43" y="88.75" width="11.24" height="11.24"/><rect class="cls-2" x="193.97" y="88.75" width="11.23" height="11.24"/><rect class="cls-2" x="222.43" y="103.01" width="11.24" height="11.24"/><rect class="cls-2" x="193.97" y="103.01" width="11.23" height="11.24"/><rect class="cls-2" x="208.04" y="55" width="10.02" height="10.02"/><rect class="cls-2" x="195.34" y="55" width="10.03" height="10.02"/><rect class="cls-2" x="208.04" y="67.73" width="10.02" height="10.02"/><rect class="cls-2" x="195.34" y="67.73" width="10.03" height="10.02"/><rect class="cls-2" x="179.74" y="103.01" width="11.24" height="11.24"/><rect class="cls-2" x="208.2" y="117.28" width="11.24" height="11.23"/><rect class="cls-2" x="179.74" y="117.28" width="11.24" height="11.23"/><rect class="cls-2" x="208.2" y="131.54" width="11.24" height="11.23"/><rect class="cls-2" x="193.97" y="131.54" width="11.23" height="11.23"/><rect class="cls-2" x="222.43" y="145.81" width="11.24" height="11.23"/><rect class="cls-2" x="193.97" y="145.81" width="11.23" height="11.23"/><rect class="cls-2" x="179.74" y="145.81" width="11.24" height="11.23"/><rect class="cls-2" x="193.98" y="160.08" width="25.46" height="31.04"/><rect class="cls-1" x="231.28" y="72.39" width="96.26" height="118.72"/><rect class="cls-2" x="311.49" y="82.1" width="7.12" height="7.12"/><rect class="cls-2" x="301.07" y="82.1" width="7.13" height="7.12"/><rect class="cls-2" x="311.49" y="91.62" width="7.12" height="7.12"/><rect class="cls-2" x="290.65" y="91.62" width="7.12" height="7.12"/><rect class="cls-2" x="311.49" y="101.15" width="7.12" height="7.12"/><rect class="cls-2" x="301.07" y="101.15" width="7.13" height="7.12"/><rect class="cls-2" x="290.65" y="101.15" width="7.12" height="7.12"/><rect class="cls-2" x="301.07" y="110.67" width="7.13" height="7.12"/><rect class="cls-2" x="311.49" y="120.19" width="7.12" height="7.13"/><rect class="cls-2" x="301.07" y="120.19" width="7.13" height="7.13"/><rect class="cls-2" x="290.65" y="120.19" width="7.12" height="7.13"/><rect class="cls-2" x="311.49" y="129.72" width="7.12" height="7.13"/><rect class="cls-2" x="301.07" y="129.72" width="7.13" height="7.13"/><rect class="cls-2" x="290.65" y="129.72" width="7.12" height="7.13"/><rect class="cls-2" x="280.27" y="82.1" width="7.13" height="7.12"/><rect class="cls-2" x="269.86" y="82.1" width="7.12" height="7.12"/><rect class="cls-2" x="280.27" y="91.62" width="7.13" height="7.12"/><rect class="cls-2" x="269.86" y="91.62" width="7.12" height="7.12"/><rect class="cls-2" x="259.43" y="91.62" width="7.13" height="7.12"/><rect class="cls-2" x="269.86" y="101.15" width="7.12" height="7.12"/><rect class="cls-2" x="259.43" y="101.15" width="7.13" height="7.12"/><rect class="cls-2" x="280.27" y="110.67" width="7.13" height="7.12"/><rect class="cls-2" x="259.43" y="110.67" width="7.13" height="7.12"/><rect class="cls-2" x="280.27" y="120.19" width="7.13" height="7.13"/><rect class="cls-2" x="269.86" y="120.19" width="7.12" height="7.13"/><rect class="cls-2" x="311.49" y="139.29" width="7.12" height="7.13"/><rect class="cls-2" x="301.07" y="139.29" width="7.13" height="7.13"/><rect class="cls-2" x="311.49" y="148.82" width="7.12" height="7.13"/><rect class="cls-2" x="290.65" y="148.82" width="7.12" height="7.13"/><rect class="cls-2" x="311.49" y="158.34" width="7.12" height="7.13"/><rect class="cls-2" x="290.65" y="158.34" width="7.12" height="7.13"/><rect class="cls-2" x="263" y="167.86" width="31.22" height="22.06"/><rect class="cls-2" x="280.27" y="139.29" width="7.13" height="7.13"/><rect class="cls-2" x="269.86" y="139.29" width="7.12" height="7.13"/><rect class="cls-2" x="259.43" y="139.29" width="7.13" height="7.13"/><rect class="cls-2" x="280.27" y="148.82" width="7.13" height="7.13"/><rect class="cls-2" x="259.43" y="148.82" width="7.13" height="7.13"/><rect class="cls-2" x="269.86" y="158.34" width="7.12" height="7.13"/><rect class="cls-2" x="259.43" y="158.34" width="7.13" height="7.13"/><rect class="cls-2" x="249.06" y="82.1" width="7.12" height="101.5"/><rect class="cls-2" x="238.63" y="82.1" width="7.13" height="101.5"/><rect class="cls-1" x="256.18" y="58.36" width="48.45" height="14.04"/><rect class="cls-1" x="390.26" y="87.01" width="1.35" height="103.67"/><rect class="cls-2" x="388.71" y="85.46" width="2.9" height="106.78"/><polygon class="cls-1" points="391.61 85.14 379.52 85.14 379.52 32.46 363.44 19.4 363.44 8.49 360.31 8.49 360.31 0 358.27 0 358.27 8.49 355.13 8.49 355.13 19.69 339.06 32.46 339.06 85.14 326.44 85.14 326.44 191.96 391.61 191.96 391.61 85.14"/><rect class="cls-2" x="365.69" y="59.96" width="9.16" height="10.6"/><rect class="cls-2" x="354.72" y="59.96" width="9.16" height="10.6"/><rect class="cls-2" x="343.76" y="59.96" width="9.16" height="10.6"/><rect class="cls-2" x="365.69" y="71.91" width="9.16" height="10.6"/><rect class="cls-2" x="354.72" y="71.91" width="9.16" height="10.6"/><rect class="cls-2" x="343.76" y="71.91" width="9.16" height="10.6"/><rect class="cls-2" x="365.69" y="35.83" width="9.16" height="10.6"/><rect class="cls-2" x="354.72" y="35.83" width="9.16" height="10.6"/><rect class="cls-2" x="343.76" y="35.83" width="9.16" height="10.6"/><rect class="cls-2" x="365.69" y="47.78" width="9.16" height="10.6"/><rect class="cls-2" x="354.72" y="47.78" width="9.16" height="10.6"/><rect class="cls-2" x="343.76" y="47.78" width="9.16" height="10.6"/><rect class="cls-2" x="365.69" y="89.38" width="9.16" height="10.6"/><rect class="cls-2" x="354.72" y="89.38" width="9.16" height="10.6"/><rect class="cls-2" x="343.76" y="89.38" width="9.16" height="10.6"/><rect class="cls-2" x="365.69" y="101.32" width="9.16" height="10.6"/><rect class="cls-2" x="376.66" y="89.38" width="9.16" height="10.6"/><rect class="cls-2" x="376.66" y="101.32" width="9.16" height="10.6"/><rect class="cls-2" x="354.72" y="101.32" width="9.16" height="10.6"/><rect class="cls-2" x="343.76" y="101.32" width="9.16" height="10.6"/><rect class="cls-2" x="333.05" y="89.38" width="9.16" height="10.6"/><rect class="cls-2" x="333.05" y="101.32" width="9.16" height="10.6"/><rect class="cls-2" x="365.69" y="113.69" width="9.16" height="10.6"/><rect class="cls-2" x="354.72" y="113.69" width="9.16" height="10.6"/><rect class="cls-2" x="343.76" y="113.69" width="9.16" height="10.6"/><rect class="cls-2" x="365.69" y="125.64" width="9.16" height="10.6"/><rect class="cls-2" x="376.66" y="113.69" width="9.16" height="10.6"/><rect class="cls-2" x="376.66" y="125.64" width="9.16" height="10.6"/><rect class="cls-2" x="354.72" y="125.64" width="9.16" height="10.6"/><rect class="cls-2" x="343.76" y="125.64" width="9.16" height="10.6"/><rect class="cls-2" x="333.05" y="113.69" width="9.16" height="10.6"/><rect class="cls-2" x="333.05" y="125.64" width="9.16" height="10.6"/><rect class="cls-2" x="365.69" y="137.73" width="9.16" height="10.6"/><rect class="cls-2" x="354.72" y="137.73" width="9.16" height="10.6"/><rect class="cls-2" x="343.76" y="137.73" width="9.16" height="10.6"/><rect class="cls-2" x="365.69" y="149.68" width="9.16" height="10.61"/><rect class="cls-2" x="376.66" y="137.73" width="9.16" height="10.6"/><rect class="cls-2" x="376.66" y="149.68" width="9.16" height="10.61"/><rect class="cls-2" x="354.72" y="149.68" width="9.16" height="10.61"/><rect class="cls-2" x="343.76" y="149.68" width="9.16" height="10.61"/><rect class="cls-2" x="333.05" y="137.73" width="9.16" height="10.6"/><rect class="cls-2" x="333.05" y="149.68" width="9.16" height="10.61"/><rect class="cls-2" x="365.69" y="161.77" width="9.16" height="10.6"/><rect class="cls-2" x="354.72" y="161.77" width="9.16" height="10.6"/><rect class="cls-2" x="343.76" y="161.77" width="9.16" height="10.6"/><rect class="cls-2" x="365.69" y="173.71" width="9.16" height="10.6"/><rect class="cls-2" x="376.66" y="161.77" width="9.16" height="10.6"/><rect class="cls-2" x="376.66" y="173.71" width="9.16" height="10.6"/><rect class="cls-2" x="354.72" y="173.71" width="9.16" height="10.6"/><rect class="cls-2" x="343.76" y="173.71" width="9.16" height="10.6"/><rect class="cls-2" x="333.05" y="161.77" width="9.16" height="10.6"/><rect class="cls-2" x="333.05" y="173.71" width="9.16" height="10.6"/><rect class="cls-1" x="122.44" y="63.47" width="56.18" height="127.65"/><rect class="cls-2" x="151.98" y="68.48" width="21.06" height="7.72"/><rect class="cls-2" x="151.98" y="78.51" width="21.06" height="7.71"/><rect class="cls-2" x="151.98" y="98.55" width="21.06" height="7.72"/><rect class="cls-2" x="151.98" y="108.58" width="21.06" height="7.71"/><rect class="cls-2" x="151.98" y="138.65" width="21.06" height="7.71"/><rect class="cls-2" x="151.98" y="148.67" width="21.06" height="7.72"/><rect class="cls-2" x="151.98" y="168.72" width="21.06" height="7.72"/><rect class="cls-2" x="151.98" y="178.75" width="21.06" height="7.72"/><rect class="cls-2" x="128.02" y="78.51" width="21.07" height="7.71"/><rect class="cls-2" x="128.02" y="88.53" width="21.07" height="7.72"/><rect class="cls-2" x="128.02" y="98.55" width="21.07" height="7.72"/><rect class="cls-2" x="128.02" y="118.6" width="21.07" height="7.72"/><rect class="cls-2" x="128.02" y="128.63" width="21.07" height="7.71"/><rect class="cls-2" x="128.02" y="138.65" width="21.07" height="7.71"/><rect class="cls-2" x="128.02" y="158.7" width="21.07" height="7.71"/><rect class="cls-2" x="128.02" y="168.72" width="21.07" height="7.72"/><polygon class="cls-1" points="11.2 191.12 77.2 191.12 77.2 52.16 11.2 16.79 11.2 191.12"/><rect class="cls-2" x="28.59" y="168.76" width="31.21" height="22.06"/><rect class="cls-2" x="62.92" y="56.34" width="7.9" height="7.9"/><rect class="cls-2" x="62.92" y="66.9" width="7.9" height="7.9"/><rect class="cls-2" x="51.36" y="66.9" width="7.9" height="7.9"/><rect class="cls-2" x="62.92" y="77.46" width="7.9" height="7.9"/><rect class="cls-2" x="62.92" y="88.01" width="7.9" height="7.9"/><rect class="cls-2" x="51.36" y="88.01" width="7.9" height="7.9"/><rect class="cls-2" x="51.36" y="98.57" width="7.9" height="7.9"/><rect class="cls-2" x="62.92" y="109.13" width="7.9" height="7.9"/><rect class="cls-2" x="51.36" y="109.13" width="7.9" height="7.9"/><rect class="cls-2" x="39.86" y="56.34" width="7.9" height="7.9"/><rect class="cls-2" x="28.31" y="56.34" width="7.9" height="7.9"/><rect class="cls-2" x="28.31" y="66.9" width="7.9" height="7.9"/><rect class="cls-2" x="16.77" y="66.9" width="7.9" height="7.9"/><rect class="cls-2" x="39.86" y="77.46" width="7.9" height="7.9"/><rect class="cls-2" x="28.31" y="77.46" width="7.9" height="7.9"/><rect class="cls-2" x="16.77" y="88.01" width="7.9" height="7.9"/><rect class="cls-2" x="39.86" y="98.57" width="7.9" height="7.9"/><rect class="cls-2" x="28.31" y="98.57" width="7.9" height="7.9"/><rect class="cls-2" x="28.31" y="109.13" width="7.9" height="7.9"/><rect class="cls-2" x="16.77" y="109.13" width="7.9" height="7.9"/><rect class="cls-2" x="62.92" y="119.74" width="7.9" height="7.9"/><rect class="cls-2" x="51.36" y="119.74" width="7.9" height="7.9"/><rect class="cls-2" x="62.92" y="130.29" width="7.9" height="7.9"/><rect class="cls-2" x="51.36" y="130.29" width="7.9" height="7.9"/><rect class="cls-2" x="51.36" y="140.85" width="7.9" height="7.9"/><rect class="cls-2" x="39.86" y="119.74" width="7.9" height="7.9"/><rect class="cls-2" x="16.77" y="119.74" width="7.9" height="7.9"/><rect class="cls-2" x="28.31" y="130.29" width="7.9" height="7.9"/><rect class="cls-2" x="28.31" y="140.85" width="7.9" height="7.9"/><rect class="cls-2" x="16.77" y="140.85" width="7.9" height="7.9"/><rect class="cls-2" x="62.92" y="150.38" width="7.9" height="7.9"/><rect class="cls-2" x="51.36" y="150.38" width="7.9" height="7.9"/><rect class="cls-2" x="39.86" y="150.38" width="7.9" height="7.9"/><rect class="cls-2" x="28.31" y="150.38" width="7.9" height="7.9"/><rect class="cls-1" y="184.32" width="400.09" height="7.92"/><circle class="cls-2" cx="45.5" cy="75.96" r="23.88" transform="translate(-40.39 54.42) rotate(-45)"/><path class="cls-3" d="M50.12,72.67V68.74c0-4.84-2.34-7.48-7.09-7.48H36V91.53h4.76V80.16H43C47.78,80.16,50.12,77.52,50.12,72.67ZM45.36,73c0,2.16-.82,2.85-2.33,2.85H40.78V65.58H43c1.51,0,2.33.69,2.33,2.86Z"/><path class="cls-3" d="M45.44,51.28a25.36,25.36,0,0,0-2.78,50.57V190h5.55V101.85a25.36,25.36,0,0,0-2.77-50.57Zm0,45.69A20.33,20.33,0,1,1,65.76,76.64,20.33,20.33,0,0,1,45.44,97Z"/><path class="cls-3" d="M57.42,83.35h-.64a.13.13,0,0,0-.13.13v.74h-.21l-.38-2.09a.52.52,0,0,0-.51-.51H47.36c-.48,0-.5.51-.5.51l-.38,2.09h-.24v-.74a.13.13,0,0,0-.13-.13h-.64a.13.13,0,0,0-.13.13v1.39a.13.13,0,0,0,.13.14h.36v.18l.36.49a.75.75,0,0,0-.73.75v3.28h.19V91a.57.57,0,0,0,.57.57h1a.56.56,0,0,0,.57-.57V89.71h7.37V91a.57.57,0,0,0,.57.57h1a.56.56,0,0,0,.57-.57V89.71h.2V86.43a.76.76,0,0,0-.76-.75h0l.36-.49V85h.36a.13.13,0,0,0,.13-.14V83.48A.13.13,0,0,0,57.42,83.35Zm-11.15,2-.2-.27V85h0a.13.13,0,0,0,.13-.14v-.51h.21ZM47.44,88a.84.84,0,0,1-.83-.84.84.84,0,0,1,1.67,0A.84.84,0,0,1,47.44,88Zm-.15-2.42.51-2.82a.41.41,0,0,1,.4-.4h6.51a.4.4,0,0,1,.4.4l.51,2.82H47.29ZM55.47,88a.85.85,0,0,1-.84-.84.84.84,0,0,1,1.68,0A.85.85,0,0,1,55.47,88Zm1.36-2.85-.19.25-.18-1h.19v.51a.13.13,0,0,0,.13.14h0Z"/><rect class="cls-3" x="21.5" y="187.86" width="351.13" height="4.28"/><path class="cls-3" d="M144.66,135.94h-4.12a.87.87,0,0,0-.87.87v4.82H138.3L135.84,128s-.13-3.28-3.28-3.28H79.45c-3.15,0-3.28,3.28-3.28,3.28l-2.46,13.59H72.19v-4.82a.87.87,0,0,0-.87-.87H67.2a.87.87,0,0,0-.87.87v9a.87.87,0,0,0,.87.87h2.64v1.07l2.21,3,0,.3a4.9,4.9,0,0,0-4.91,4.9v21.27h1.26v8.1a3.7,3.7,0,0,0,3.7,3.7h6.36a3.7,3.7,0,0,0,3.7-3.7v-8.1h47.78v8.1a3.7,3.7,0,0,0,3.7,3.7H140a3.7,3.7,0,0,0,3.7-3.7v-8.1h1.25V156a4.9,4.9,0,0,0-4.9-4.9h0l-.08-.46,2.08-2.83V146.7h2.65a.87.87,0,0,0,.87-.87v-9A.87.87,0,0,0,144.66,135.94ZM72.27,149.59l-1.56-2.11v-.78h.61a.87.87,0,0,0,.87-.87v-3.32h1.36ZM80,165.86a5.43,5.43,0,1,1,5.42-5.42A5.43,5.43,0,0,1,80,165.86Zm-1-15.67L82.3,131.9a2.64,2.64,0,0,1,2.61-2.6H127.1a2.63,2.63,0,0,1,2.6,2.6L133,150.19H79Zm53,15.67a5.43,5.43,0,1,1,5.42-5.42A5.43,5.43,0,0,1,132,165.86Zm9.11-18.38-1.43,2-1.25-6.92h1.21v3.32a.87.87,0,0,0,.87.87h.6Z"/><path class="cls-3" d="M250.52,174.93h-.33V160.66a4.91,4.91,0,0,0-4.91-4.9h0l-1-2.79.73-.59a1,1,0,0,0,1.15.45l3.48-1.27a1,1,0,0,0,.58-1.25l-.53-1.46a5.35,5.35,0,0,0-5.76-2.16,1,1,0,0,0-.58,1.24l.81,2.23-.7.57-6.55-18s-1.1-3.28-3.28-3.28H189.93c-2.05,0-3.28,3.28-3.28,3.28l-7.33,18-.68-.55.81-2.23a1,1,0,0,0-.58-1.24,5.35,5.35,0,0,0-5.76,2.16l-.53,1.46a1,1,0,0,0,.57,1.24l3.49,1.27a1,1,0,0,0,1.15-.44l.64.51-1.16,2.84h0a4.9,4.9,0,0,0-4.9,4.9v14.27H172a.49.49,0,0,0-.48.49v4.29a.49.49,0,0,0,.48.49h5v5.46a3.37,3.37,0,0,0,3.37,3.37h5.79a3.37,3.37,0,0,0,3.37-3.37V180.2H233v5.46a3.37,3.37,0,0,0,3.37,3.37h5.79a3.37,3.37,0,0,0,3.37-3.37V180.2h5a.49.49,0,0,0,.48-.49v-4.29A.49.49,0,0,0,250.52,174.93Zm-59.47-39s.91-2.34,2.6-2.34h36.12c2.15,0,2.61,2.34,2.61,2.34l5.91,16.39h-54Zm-10.4,32.4c-2-.13-4.47-1.91-4.56-3.88-.16-3.73,3.07-3.38,5-3.24s9.05,1.1,8.8,4.8C189.8,168,182.62,168.44,180.65,168.31Zm46.73,1.62H195.17a.37.37,0,0,1,0-.73h32.21a.37.37,0,1,1,0,.73Zm0-1.73H195.17a.37.37,0,0,1-.36-.37.36.36,0,0,1,.36-.37h32.21a.37.37,0,0,1,.37.37A.38.38,0,0,1,227.38,168.2Zm0-1.74H195.17a.37.37,0,0,1,0-.74h32.21a.37.37,0,0,1,0,.74Zm0-1.74H195.17a.37.37,0,0,1-.36-.37.36.36,0,0,1,.36-.36h32.21a.37.37,0,0,1,.37.36A.38.38,0,0,1,227.38,164.72Zm0-1.73H195.17a.37.37,0,0,1-.36-.37.36.36,0,0,1,.36-.37h32.21a.37.37,0,0,1,.37.37A.38.38,0,0,1,227.38,163Zm14.52,5.32c-2,.13-9.14-.35-9.28-2.32-.24-3.7,6.84-4.67,8.81-4.8s5.19-.49,5,3.24C246.38,166.4,243.87,168.18,241.9,168.31Z"/><path class="cls-3" d="M355.93,176.47V164.72c0-2.46-2.56-7.82-8.26-8.79l-.8-2.75.81-.65a1,1,0,0,0,1.15.44l3.48-1.27a1,1,0,0,0,.58-1.24l-.53-1.46a5.33,5.33,0,0,0-5.76-2.16,1,1,0,0,0-.58,1.24l.81,2.23-.64.52-3.27-11.25s-2.31-7.48-25.69-7.48-24.56,7.48-24.56,7.48l-4.4,11.57-1.06-.84.81-2.23a1,1,0,0,0-.58-1.24,5.31,5.31,0,0,0-5.75,2.16l-.54,1.46a1,1,0,0,0,.58,1.24l3.48,1.27a.94.94,0,0,0,1.15-.44l.93.74.33-.41-1.14,3a9.38,9.38,0,0,0-8.37,8.86v11.75h-1.43V180a2.45,2.45,0,0,0,2.44,2.18h3.63v3.47a3.36,3.36,0,0,0,3.36,3.37h5.8a3.36,3.36,0,0,0,3.36-3.37v-3.47h43.5v3.47a3.37,3.37,0,0,0,3.37,3.37h5.79a3.37,3.37,0,0,0,3.37-3.37v-3.47H355a2.29,2.29,0,0,0,2.39-2.18v-3.54Zm-56.52-33.88s.85-5,17.76-5,18.58,5,18.58,5L339.36,155H294.69Zm-13,25.72c-2-.13-4.48-1.91-4.56-3.88-.16-3.73,3.07-3.38,5-3.24s9.05,1.1,8.8,4.8C295.54,168,288.36,168.44,286.4,168.31Zm46.72,1.62h-32.2a.37.37,0,1,1,0-.73h32.2a.37.37,0,1,1,0,.73Zm0-1.73h-32.2a.37.37,0,0,1-.37-.37.36.36,0,0,1,.37-.37h32.2a.36.36,0,0,1,.37.37A.37.37,0,0,1,333.12,168.2Zm0-1.74h-32.2a.37.37,0,0,1,0-.74h32.2a.37.37,0,0,1,0,.74Zm0-1.74h-32.2a.37.37,0,1,1,0-.73h32.2a.37.37,0,1,1,0,.73Zm0-1.73h-32.2a.37.37,0,0,1-.37-.37.36.36,0,0,1,.37-.37h32.2a.36.36,0,0,1,.37.37A.37.37,0,0,1,333.12,163Zm14.53,5.32c-2,.13-9.15-.35-9.28-2.32-.25-3.7,6.83-4.67,8.8-4.8s5.2-.49,5,3.24C352.12,166.4,349.62,168.18,347.65,168.31Z"/><rect class="cls-3" x="55.65" y="180.46" width="8.54" height="10.96"/><rect class="cls-3" x="147.9" y="180.46" width="8.54" height="10.96"/><rect class="cls-3" x="161.13" y="180.46" width="8.54" height="10.96"/><rect class="cls-3" x="253.39" y="180.46" width="8.54" height="10.96"/><rect class="cls-3" x="266.62" y="180.46" width="8.54" height="10.96"/><rect class="cls-3" x="358.87" y="180.46" width="8.54" height="10.96"/></g></g></svg>