<?xml version="1.0" encoding="utf-8"?>
<!-- Generator: Adobe Illustrator 22.0.0, SVG Export Plug-In . SVG Version: 6.00 Build 0)  -->
<svg version="1.1" id="Layer_1" xmlns="http://www.w3.org/2000/svg" xmlns:xlink="http://www.w3.org/1999/xlink" x="0px" y="0px"
	 viewBox="0 0 2536 1066.8" style="enable-background:new 0 0 2536 1066.8;" xml:space="preserve">
<style type="text/css">
	.st0{fill:#606060;}
	.st1{fill:#FFFFFF;}
	.st2{fill:#76C2AF;}
</style>
<g id="Logo">
	<g id="Spot">
		<path id="T" class="st0" d="M2258.7,205.2v494.5h-206.3V205.2h-158V5.4h522.3v199.8H2258.7z"/>
		<g id="XMLID_1_">
			<path class="st1" d="M1493.5,204.2c87.8,0,159.1,71.2,159.1,159.1c0,87.9-71.2,159.1-159.1,159.1c-87.9,0-159.1-71.2-159.1-159.1
				C1334.4,275.4,1405.7,204.2,1493.5,204.2z"/>
			<path class="st2" d="M1854.9,363.2c0,78.4-40.6,161.9-67.4,210.1C1718.2,698,1493.8,1062,1493.8,1062s-224.5-364-293.7-488.6
				c-26.8-48.2-67.4-131.7-67.4-210.1c0-199.4,161.7-361.1,361.1-361.1S1854.9,163.8,1854.9,363.2z M1652.6,363.2
				c0-87.8-71.2-159.1-159.1-159.1c-87.9,0-159.1,71.2-159.1,159.1c0,87.9,71.2,159.1,159.1,159.1
				C1581.4,522.3,1652.6,451.1,1652.6,363.2z"/>
		</g>
		<path id="P" class="st0" d="M812.2,476.7v-182c42,0,63-15.9,63-47.7c0-29.1-16-43.7-48-43.7c-32.4,0-48.6,20-48.6,59.9v453.4
			H572.3v-432c0-44.8,4.5-81.5,13.5-110.2c9-28.7,24.3-55.4,46-80.2c24.4-27.5,54.9-49.2,91.5-65.1C760,13.2,797.8,5.2,836.7,5.2
			c70.5,0,129.8,23.8,177.7,71.3s72,106.4,72,176.6c0,68.2-21.5,123.5-64.6,165.9c-39.3,39-98.7,58.5-178.1,58.5L812.2,476.7z"/>
		<path id="S" class="st0" d="M481.2,19.4v198.1c-14.9-5.1-26.5-7.6-34.6-7.6c-15.6,0-29,5.8-40.2,17.3
			c-11.2,11.5-16.8,25.4-16.8,41.7c0,13.9,6.1,31.5,18.3,52.9l15.8,27.5c28.5,49.5,42.8,97.2,42.8,143.3c0,67.4-24,124.5-72,171.3
			c-48,46.8-106.5,70.1-175.7,70.1c-33.2,0-66.1-7.6-98.6-22.8V510.3c19.7,12.6,37.1,18.9,52.4,18.9c18,0,33-5.2,45-15.5
			c12-10.3,18-23.3,18-38.9c0-10.2-9.7-32.4-29-66.6c-30.9-54.2-46.3-108.5-46.3-162.8c0-65.4,23.3-121.8,69.9-169.1
			c46.6-47.3,102.3-71,167.1-71C425.8,5.2,453.8,9.9,481.2,19.4z"/>
	</g>
</g>
</svg>
